<svg xmlns="http://www.w3.org/2000/svg" version="1.1" xmlns:xlink="http://www.w3.org/1999/xlink" xmlns:svgjs="http://svgjs.com/svgjs" width="1440" height="560" preserveAspectRatio="none" viewBox="0 0 1440 560"><g mask="url(&quot;#SvgjsMask1008&quot;)" fill="none"><rect width="1440" height="560" x="0" y="0" fill="rgba(25, 42, 86, 1)"></rect><use xlink:href="#SvgjsG1011" transform="translate(0, 0)" fill="rgba(39, 174, 96, 0.58)"></use></g><defs><mask id="SvgjsMask1008"><rect width="1440" height="560" fill="#ffffff"></rect></mask><g id="SvgjsG1009"><path d="M8.312 4.802l0 0.521c0.492-0.069 0.443-0.509 0-0.52z m-0.51-0.627V3.715c-0.365 0.064-0.358 0.454 0 0.46z"></path><path d="M8.055 2.506c-1.128 0-2.044 0.915-2.044 2.043 0 1.129 0.915 2.044 2.045 2.044 1.129 0 2.043-0.915 2.043-2.044 0-1.128-0.915-2.043-2.043-2.043z m0.251 3.336v0.364h-0.507v-0.37c-0.29-0.043-0.822-0.323-0.855-0.924h0.534c0.034 0.154 0.078 0.34 0.321 0.409l-0.001-0.605c-0.334-0.048-0.814-0.194-0.814-0.73 0-0.602 0.666-0.789 0.813-0.789v-0.364h0.502v0.364c0.338 0.02 0.83 0.302 0.83 0.84h-0.528c-0.014-0.16-0.137-0.317-0.296-0.327v0.554c0.403 0.041 0.877 0.195 0.877 0.738 0 0.473-0.475 0.818-0.877 0.84z m1.733 5.54c-1.129 0-2.044 0.915-2.043 2.044s0.915 2.043 2.043 2.043 2.043-0.915 2.043-2.043c0-1.129-0.915-2.044-2.043-2.044zM10.955 13.739v0.499h-0.636v0.701h-0.542V14.238h-0.68v-0.49h0.688l-0.894-1.576h0.593l0.551 0.972 0.597-0.972h0.547L10.293 13.739h0.662z m-7.36-4.673c-1.129 0-2.044 0.915-2.043 2.044S2.467 13.154 3.595 13.154s2.044-0.915 2.044-2.044-0.915-2.044-2.044-2.044z m0.065 1.654v0.486h-0.367v1.165H2.773v-1.162h-0.31v-0.484h0.31v-0.436c0-0.168 0.163-0.68 0.777-0.68 0.627 0 0.762 0.494 0.762 0.908h-0.511c0-0.265-0.037-0.404-0.246-0.404-0.226 0-0.262 0.155-0.262 0.4v0.206h0.366z m1.173 0.482c-0.421 0.052-0.516 0.276-0.517 0.554v0.616h-0.516V10.72h0.516v0.258c0.112-0.129 0.241-0.267 0.517-0.267v0.491z"></path><path d="M0 0.56v7.93h9.395c0.178 0.948 1.009 1.666 2.009 1.666s1.83-0.718 2.008-1.666H16V0.56H0z m11.195 7.221h0.464v0.441h-0.378c0.047 0.403-0.185 0.572-0.198 0.707h1.264v0.441H10.456v-0.441c0.215-0.144 0.327-0.508 0.258-0.703h-0.396v-0.448h0.318c-0.086-0.203-0.086-0.27-0.086-0.448s0.147-0.758 0.912-0.754c0.705 0.004 0.91 0.584 0.91 1l-0.537 0c-0.036-0.251-0.135-0.458-0.368-0.458-0.357 0-0.358 0.224-0.357 0.301s0.013 0.262 0.086 0.364z m3.297-0.798h-1.386c-0.366-0.551-0.992-0.914-1.703-0.914S10.067 6.432 9.701 6.982H1.508V2.068h12.984V6.982z"></path></g><g id="SvgjsG1010"><path d="M7.996 16h-0.001c-2.137-0.001-4.145-0.834-5.655-2.345C0.829 12.142-0.002 10.132 0 7.995-0.002 5.861 0.828 3.853 2.338 2.342 3.848 0.832 5.855 0 7.99 0h0.01C10.136 0 12.146 0.832 13.656 2.342c1.51 1.51 2.342 3.518 2.344 5.653-0.002 2.139-0.835 4.148-2.346 5.66-1.512 1.511-3.521 2.344-5.658 2.345z m-0.006-14.161c-1.644 0-3.189 0.64-4.351 1.804-1.162 1.163-1.801 2.708-1.8 4.352-0.001 1.648 0.639 3.196 1.802 4.359 1.163 1.164 2.709 1.805 4.354 1.807 3.398-0.002 6.163-2.768 6.167-6.166-0.002-3.394-2.765-6.155-6.16-6.155h-0.01z"></path><path d="M8.692 7.143V5.35c0.511 0.037 0.91 0.544 0.957 1.062h1.697c0.002-1.741-1.581-2.657-2.672-2.724v-1.175H7.056v1.175c-0.476 0.004-2.622 0.611-2.62 2.558-0.003 1.733 1.545 2.206 2.62 2.358v1.959c-0.783-0.222-0.926-0.824-1.036-1.323h-1.723c0.11 1.949 1.823 2.856 2.759 2.995v1.202h1.636v-1.184c1.294-0.07 2.827-1.187 2.829-2.716-0.002-1.758-1.529-2.256-2.829-2.393zM7.064 6.855c-1.152-0.018-1.175-1.281 0-1.488v1.488z m1.645 3.717V8.883c1.427 0.039 1.586 1.462 0 1.689z"></path></g><g id="SvgjsG1011"><use xlink:href="#SvgjsG1009" transform="translate(0, 0) scale(3)" fill="rgba(39, 174, 96, 0.58)"></use><use xlink:href="#SvgjsG1010" transform="translate(0, 192) scale(3)" fill="rgba(39, 174, 96, 0.58)"></use><use xlink:href="#SvgjsG1009" transform="translate(0, 384) scale(3)" fill="rgba(39, 174, 96, 0.58)"></use><use xlink:href="#SvgjsG1009" transform="translate(192, 0) scale(3)" fill="rgba(39, 174, 96, 0.58)"></use><use xlink:href="#SvgjsG1009" transform="translate(192, 192) scale(3)" fill="rgba(39, 174, 96, 0.58)"></use><use xlink:href="#SvgjsG1010" transform="translate(192, 384) scale(3)" fill="rgba(39, 174, 96, 0.58)"></use><use xlink:href="#SvgjsG1010" transform="translate(384, 0) scale(3)" fill="rgba(39, 174, 96, 0.58)"></use><use xlink:href="#SvgjsG1009" transform="translate(384, 192) scale(3)" fill="rgba(39, 174, 96, 0.58)"></use><use xlink:href="#SvgjsG1009" transform="translate(384, 384) scale(3)" fill="rgba(39, 174, 96, 0.58)"></use><use xlink:href="#SvgjsG1009" transform="translate(576, 0) scale(3)" fill="rgba(39, 174, 96, 0.58)"></use><use xlink:href="#SvgjsG1009" transform="translate(576, 192) scale(3)" fill="rgba(39, 174, 96, 0.58)"></use><use xlink:href="#SvgjsG1009" transform="translate(576, 384) scale(3)" fill="rgba(39, 174, 96, 0.58)"></use><use xlink:href="#SvgjsG1010" transform="translate(768, 0) scale(3)" fill="rgba(39, 174, 96, 0.58)"></use><use xlink:href="#SvgjsG1009" transform="translate(768, 192) scale(3)" fill="rgba(39, 174, 96, 0.58)"></use><use xlink:href="#SvgjsG1009" transform="translate(768, 384) scale(3)" fill="rgba(39, 174, 96, 0.58)"></use><use xlink:href="#SvgjsG1009" transform="translate(960, 0) scale(3)" fill="rgba(39, 174, 96, 0.58)"></use><use xlink:href="#SvgjsG1010" transform="translate(960, 192) scale(3)" fill="rgba(39, 174, 96, 0.58)"></use><use xlink:href="#SvgjsG1009" transform="translate(960, 384) scale(3)" fill="rgba(39, 174, 96, 0.58)"></use><use xlink:href="#SvgjsG1010" transform="translate(1152, 0) scale(3)" fill="rgba(39, 174, 96, 0.58)"></use><use xlink:href="#SvgjsG1009" transform="translate(1152, 192) scale(3)" fill="rgba(39, 174, 96, 0.58)"></use><use xlink:href="#SvgjsG1009" transform="translate(1152, 384) scale(3)" fill="rgba(39, 174, 96, 0.58)"></use><use xlink:href="#SvgjsG1010" transform="translate(1344, 0) scale(3)" fill="rgba(39, 174, 96, 0.58)"></use><use xlink:href="#SvgjsG1009" transform="translate(1344, 192) scale(3)" fill="rgba(39, 174, 96, 0.58)"></use><use xlink:href="#SvgjsG1010" transform="translate(1344, 384) scale(3)" fill="rgba(39, 174, 96, 0.58)"></use></g></defs></svg>