<svg xmlns="http://www.w3.org/2000/svg" version="1.1" xmlns:xlink="http://www.w3.org/1999/xlink" xmlns:svgjs="http://svgjs.com/svgjs" width="1440" height="560" preserveAspectRatio="none" viewBox="0 0 1440 560"><g mask="url(&quot;#SvgjsMask1014&quot;)" fill="none"><rect width="1440" height="560" x="0" y="0" fill="url(#SvgjsLinearGradient1015)"></rect><path d="M-48.07 354.82L-48.07 354.82" stroke="#132e65" stroke-width="1.5"></path><path d="M-48.07 354.82L40.54 345.74" stroke="#132e65" stroke-width="1.5"></path><path d="M-48.07 354.82L-57.42 496.39" stroke="#132e65" stroke-width="1.5"></path><path d="M-57.42 496.39L-57.42 496.39" stroke="#132e65" stroke-width="1.5"></path><path d="M-57.42 496.39L-107.33 657.65" stroke="#132e65" stroke-width="1.5"></path><path d="M-57.42 496.39L103.45 549.04" stroke="#132e65" stroke-width="1.5"></path><path d="M-57.42 496.39L40.54 345.74" stroke="#132e65" stroke-width="1.5"></path><path d="M-57.42 496.39L198.35 362.8" stroke="#132e65" stroke-width="1.5"></path><path d="M-107.33 657.65L-107.33 657.65" stroke="#132e65" stroke-width="1.5"></path><path d="M-107.33 657.65L103.45 549.04" stroke="#132e65" stroke-width="1.5"></path><path d="M-107.33 657.65L-48.07 354.82" stroke="#132e65" stroke-width="1.5"></path><path d="M40.54 345.74L40.54 345.74" stroke="#132e65" stroke-width="1.5"></path><path d="M40.54 345.74L198.35 362.8" stroke="#132e65" stroke-width="1.5"></path><path d="M40.54 345.74L103.45 549.04" stroke="#132e65" stroke-width="1.5"></path><path d="M103.45 549.04L103.45 549.04" stroke="#132e65" stroke-width="1.5"></path><path d="M103.45 549.04L233.83 558.68" stroke="#132e65" stroke-width="1.5"></path><path d="M103.45 549.04L232.92 691.32" stroke="#132e65" stroke-width="1.5"></path><path d="M103.45 549.04L198.35 362.8" stroke="#132e65" stroke-width="1.5"></path><path d="M198.35 362.8L198.35 362.8" stroke="#132e65" stroke-width="1.5"></path><path d="M198.35 362.8L233.83 558.68" stroke="#132e65" stroke-width="1.5"></path><path d="M198.35 362.8L404.34 345.82" stroke="#132e65" stroke-width="1.5"></path><path d="M233.83 558.68L233.83 558.68" stroke="#132e65" stroke-width="1.5"></path><path d="M233.83 558.68L232.92 691.32" stroke="#132e65" stroke-width="1.5"></path><path d="M233.83 558.68L343.05 668.24" stroke="#132e65" stroke-width="1.5"></path><path d="M233.83 558.68L404.34 345.82" stroke="#132e65" stroke-width="1.5"></path><path d="M232.92 691.32L232.92 691.32" stroke="#132e65" stroke-width="1.5"></path><path d="M232.92 691.32L343.05 668.24" stroke="#132e65" stroke-width="1.5"></path><path d="M232.92 691.32L492.3 691.28" stroke="#132e65" stroke-width="1.5"></path><path d="M232.92 691.32L198.35 362.8" stroke="#132e65" stroke-width="1.5"></path><path d="M404.34 345.82L404.34 345.82" stroke="#132e65" stroke-width="1.5"></path><path d="M404.34 345.82L535.62 384.15" stroke="#132e65" stroke-width="1.5"></path><path d="M404.34 345.82L539.79 558.46" stroke="#132e65" stroke-width="1.5"></path><path d="M343.05 668.24L343.05 668.24" stroke="#132e65" stroke-width="1.5"></path><path d="M343.05 668.24L492.3 691.28" stroke="#132e65" stroke-width="1.5"></path><path d="M535.62 384.15L535.62 384.15" stroke="#132e65" stroke-width="1.5"></path><path d="M535.62 384.15L694.86 338.97" stroke="#132e65" stroke-width="1.5"></path><path d="M535.62 384.15L539.79 558.46" stroke="#132e65" stroke-width="1.5"></path><path d="M535.62 384.15L693.4 490.01" stroke="#132e65" stroke-width="1.5"></path><path d="M535.62 384.15L681.11 249.05" stroke="#132e65" stroke-width="1.5"></path><path d="M535.62 384.15L789.44 404.86" stroke="#132e65" stroke-width="1.5"></path><path d="M539.79 558.46L539.79 558.46" stroke="#132e65" stroke-width="1.5"></path><path d="M539.79 558.46L492.3 691.28" stroke="#132e65" stroke-width="1.5"></path><path d="M539.79 558.46L693.4 490.01" stroke="#132e65" stroke-width="1.5"></path><path d="M539.79 558.46L642.44 693.45" stroke="#132e65" stroke-width="1.5"></path><path d="M539.79 558.46L343.05 668.24" stroke="#132e65" stroke-width="1.5"></path><path d="M492.3 691.28L492.3 691.28" stroke="#132e65" stroke-width="1.5"></path><path d="M492.3 691.28L642.44 693.45" stroke="#132e65" stroke-width="1.5"></path><path d="M681.11 249.05L681.11 249.05" stroke="#132e65" stroke-width="1.5"></path><path d="M681.11 249.05L694.86 338.97" stroke="#132e65" stroke-width="1.5"></path><path d="M681.11 249.05L851.58 229.24" stroke="#132e65" stroke-width="1.5"></path><path d="M681.11 249.05L789.44 404.86" stroke="#132e65" stroke-width="1.5"></path><path d="M681.11 249.05L693.4 490.01" stroke="#132e65" stroke-width="1.5"></path><path d="M681.11 249.05L854.3 51.07" stroke="#132e65" stroke-width="1.5"></path><path d="M694.86 338.97L694.86 338.97" stroke="#132e65" stroke-width="1.5"></path><path d="M694.86 338.97L789.44 404.86" stroke="#132e65" stroke-width="1.5"></path><path d="M693.4 490.01L693.4 490.01" stroke="#132e65" stroke-width="1.5"></path><path d="M693.4 490.01L801.87 542.52" stroke="#132e65" stroke-width="1.5"></path><path d="M693.4 490.01L789.44 404.86" stroke="#132e65" stroke-width="1.5"></path><path d="M693.4 490.01L694.86 338.97" stroke="#132e65" stroke-width="1.5"></path><path d="M642.44 693.45L642.44 693.45" stroke="#132e65" stroke-width="1.5"></path><path d="M854.3 51.07L854.3 51.07" stroke="#132e65" stroke-width="1.5"></path><path d="M854.3 51.07L946.99 88.15" stroke="#132e65" stroke-width="1.5"></path><path d="M854.3 51.07L963.19 -69.05" stroke="#132e65" stroke-width="1.5"></path><path d="M854.3 51.07L851.58 229.24" stroke="#132e65" stroke-width="1.5"></path><path d="M854.3 51.07L998.15 236.59" stroke="#132e65" stroke-width="1.5"></path><path d="M854.3 51.07L1087.88 214.67" stroke="#132e65" stroke-width="1.5"></path><path d="M851.58 229.24L851.58 229.24" stroke="#132e65" stroke-width="1.5"></path><path d="M851.58 229.24L998.15 236.59" stroke="#132e65" stroke-width="1.5"></path><path d="M851.58 229.24L946.99 88.15" stroke="#132e65" stroke-width="1.5"></path><path d="M789.44 404.86L789.44 404.86" stroke="#132e65" stroke-width="1.5"></path><path d="M789.44 404.86L801.87 542.52" stroke="#132e65" stroke-width="1.5"></path><path d="M789.44 404.86L851.58 229.24" stroke="#132e65" stroke-width="1.5"></path><path d="M801.87 542.52L801.87 542.52" stroke="#132e65" stroke-width="1.5"></path><path d="M801.87 542.52L840.86 649.24" stroke="#132e65" stroke-width="1.5"></path><path d="M801.87 542.52L992.61 524.7" stroke="#132e65" stroke-width="1.5"></path><path d="M801.87 542.52L978.33 667.75" stroke="#132e65" stroke-width="1.5"></path><path d="M840.86 649.24L840.86 649.24" stroke="#132e65" stroke-width="1.5"></path><path d="M963.19 -69.05L963.19 -69.05" stroke="#132e65" stroke-width="1.5"></path><path d="M963.19 -69.05L946.99 88.15" stroke="#132e65" stroke-width="1.5"></path><path d="M963.19 -69.05L1158.49 -44.11" stroke="#132e65" stroke-width="1.5"></path><path d="M963.19 -69.05L1156.83 75.16" stroke="#132e65" stroke-width="1.5"></path><path d="M963.19 -69.05L998.15 236.59" stroke="#132e65" stroke-width="1.5"></path><path d="M946.99 88.15L946.99 88.15" stroke="#132e65" stroke-width="1.5"></path><path d="M946.99 88.15L998.15 236.59" stroke="#132e65" stroke-width="1.5"></path><path d="M946.99 88.15L1087.88 214.67" stroke="#132e65" stroke-width="1.5"></path><path d="M998.15 236.59L998.15 236.59" stroke="#132e65" stroke-width="1.5"></path><path d="M998.15 236.59L1087.88 214.67" stroke="#132e65" stroke-width="1.5"></path><path d="M998.15 236.59L1001.56 346.19" stroke="#132e65" stroke-width="1.5"></path><path d="M1001.56 346.19L1001.56 346.19" stroke="#132e65" stroke-width="1.5"></path><path d="M1001.56 346.19L1115.63 375.08" stroke="#132e65" stroke-width="1.5"></path><path d="M992.61 524.7L992.61 524.7" stroke="#132e65" stroke-width="1.5"></path><path d="M992.61 524.7L1122.43 503.33" stroke="#132e65" stroke-width="1.5"></path><path d="M992.61 524.7L978.33 667.75" stroke="#132e65" stroke-width="1.5"></path><path d="M978.33 667.75L978.33 667.75" stroke="#132e65" stroke-width="1.5"></path><path d="M978.33 667.75L1097.62 643.44" stroke="#132e65" stroke-width="1.5"></path><path d="M978.33 667.75L840.86 649.24" stroke="#132e65" stroke-width="1.5"></path><path d="M1158.49 -44.11L1158.49 -44.11" stroke="#132e65" stroke-width="1.5"></path><path d="M1158.49 -44.11L1156.83 75.16" stroke="#132e65" stroke-width="1.5"></path><path d="M1158.49 -44.11L1310.78 62.42" stroke="#132e65" stroke-width="1.5"></path><path d="M1158.49 -44.11L946.99 88.15" stroke="#132e65" stroke-width="1.5"></path><path d="M1156.83 75.16L1156.83 75.16" stroke="#132e65" stroke-width="1.5"></path><path d="M1156.83 75.16L1310.78 62.42" stroke="#132e65" stroke-width="1.5"></path><path d="M1156.83 75.16L1087.88 214.67" stroke="#132e65" stroke-width="1.5"></path><path d="M1156.83 75.16L1253.8 207.73" stroke="#132e65" stroke-width="1.5"></path><path d="M1156.83 75.16L946.99 88.15" stroke="#132e65" stroke-width="1.5"></path><path d="M1087.88 214.67L1087.88 214.67" stroke="#132e65" stroke-width="1.5"></path><path d="M1115.63 375.08L1115.63 375.08" stroke="#132e65" stroke-width="1.5"></path><path d="M1115.63 375.08L1122.43 503.33" stroke="#132e65" stroke-width="1.5"></path><path d="M1115.63 375.08L1087.88 214.67" stroke="#132e65" stroke-width="1.5"></path><path d="M1115.63 375.08L1291.33 375.04" stroke="#132e65" stroke-width="1.5"></path><path d="M1115.63 375.08L998.15 236.59" stroke="#132e65" stroke-width="1.5"></path><path d="M1115.63 375.08L992.61 524.7" stroke="#132e65" stroke-width="1.5"></path><path d="M1122.43 503.33L1122.43 503.33" stroke="#132e65" stroke-width="1.5"></path><path d="M1122.43 503.33L1249.66 516.31" stroke="#132e65" stroke-width="1.5"></path><path d="M1122.43 503.33L1097.62 643.44" stroke="#132e65" stroke-width="1.5"></path><path d="M1097.62 643.44L1097.62 643.44" stroke="#132e65" stroke-width="1.5"></path><path d="M1097.62 643.44L992.61 524.7" stroke="#132e65" stroke-width="1.5"></path><path d="M1310.78 62.42L1310.78 62.42" stroke="#132e65" stroke-width="1.5"></path><path d="M1310.78 62.42L1457.51 53.24" stroke="#132e65" stroke-width="1.5"></path><path d="M1253.8 207.73L1253.8 207.73" stroke="#132e65" stroke-width="1.5"></path><path d="M1253.8 207.73L1310.78 62.42" stroke="#132e65" stroke-width="1.5"></path><path d="M1253.8 207.73L1087.88 214.67" stroke="#132e65" stroke-width="1.5"></path><path d="M1253.8 207.73L1291.33 375.04" stroke="#132e65" stroke-width="1.5"></path><path d="M1253.8 207.73L1460.8 209.91" stroke="#132e65" stroke-width="1.5"></path><path d="M1291.33 375.04L1291.33 375.04" stroke="#132e65" stroke-width="1.5"></path><path d="M1291.33 375.04L1404.25 401.06" stroke="#132e65" stroke-width="1.5"></path><path d="M1291.33 375.04L1249.66 516.31" stroke="#132e65" stroke-width="1.5"></path><path d="M1249.66 516.31L1249.66 516.31" stroke="#132e65" stroke-width="1.5"></path><path d="M1249.66 516.31L1387.83 530.81" stroke="#132e65" stroke-width="1.5"></path><path d="M1249.66 516.31L1286.1 656.58" stroke="#132e65" stroke-width="1.5"></path><path d="M1286.1 656.58L1286.1 656.58" stroke="#132e65" stroke-width="1.5"></path><path d="M1286.1 656.58L1389.69 650.89" stroke="#132e65" stroke-width="1.5"></path><path d="M1457.51 53.24L1457.51 53.24" stroke="#132e65" stroke-width="1.5"></path><path d="M1457.51 53.24L1573.69 94.23" stroke="#132e65" stroke-width="1.5"></path><path d="M1457.51 53.24L1460.8 209.91" stroke="#132e65" stroke-width="1.5"></path><path d="M1457.51 53.24L1571.97 236.75" stroke="#132e65" stroke-width="1.5"></path><path d="M1457.51 53.24L1253.8 207.73" stroke="#132e65" stroke-width="1.5"></path><path d="M1460.8 209.91L1460.8 209.91" stroke="#132e65" stroke-width="1.5"></path><path d="M1460.8 209.91L1571.97 236.75" stroke="#132e65" stroke-width="1.5"></path><path d="M1460.8 209.91L1573.69 94.23" stroke="#132e65" stroke-width="1.5"></path><path d="M1460.8 209.91L1404.25 401.06" stroke="#132e65" stroke-width="1.5"></path><path d="M1404.25 401.06L1404.25 401.06" stroke="#132e65" stroke-width="1.5"></path><path d="M1404.25 401.06L1387.83 530.81" stroke="#132e65" stroke-width="1.5"></path><path d="M1404.25 401.06L1584.13 408.18" stroke="#132e65" stroke-width="1.5"></path><path d="M1404.25 401.06L1249.66 516.31" stroke="#132e65" stroke-width="1.5"></path><path d="M1387.83 530.81L1387.83 530.81" stroke="#132e65" stroke-width="1.5"></path><path d="M1387.83 530.81L1389.69 650.89" stroke="#132e65" stroke-width="1.5"></path><path d="M1389.69 650.89L1389.69 650.89" stroke="#132e65" stroke-width="1.5"></path><path d="M1389.69 650.89L1249.66 516.31" stroke="#132e65" stroke-width="1.5"></path><path d="M1389.69 650.89L1593.18 700.04" stroke="#132e65" stroke-width="1.5"></path><path d="M1389.69 650.89L1404.25 401.06" stroke="#132e65" stroke-width="1.5"></path><path d="M1573.69 94.23L1573.69 94.23" stroke="#132e65" stroke-width="1.5"></path><path d="M1573.69 94.23L1571.97 236.75" stroke="#132e65" stroke-width="1.5"></path><path d="M1573.69 94.23L1310.78 62.42" stroke="#132e65" stroke-width="1.5"></path><path d="M1573.69 94.23L1584.13 408.18" stroke="#132e65" stroke-width="1.5"></path><path d="M1571.97 236.75L1571.97 236.75" stroke="#132e65" stroke-width="1.5"></path><path d="M1571.97 236.75L1584.13 408.18" stroke="#132e65" stroke-width="1.5"></path><path d="M1584.13 408.18L1584.13 408.18" stroke="#132e65" stroke-width="1.5"></path><path d="M1584.13 408.18L1387.83 530.81" stroke="#132e65" stroke-width="1.5"></path><path d="M1584.13 408.18L1460.8 209.91" stroke="#132e65" stroke-width="1.5"></path><path d="M1593.18 700.04L1593.18 700.04" stroke="#132e65" stroke-width="1.5"></path><path d="M1593.18 700.04L1387.83 530.81" stroke="#132e65" stroke-width="1.5"></path><circle r="5" cx="-48.07" cy="354.82" fill="#132e65"></circle><circle r="5" cx="-57.42" cy="496.39" fill="#132e65"></circle><circle r="5" cx="-107.33" cy="657.65" fill="#132e65"></circle><circle r="5" cx="40.54" cy="345.74" fill="#132e65"></circle><circle r="5" cx="103.45" cy="549.04" fill="#132e65"></circle><circle r="5" cx="198.35" cy="362.8" fill="#132e65"></circle><circle r="5" cx="233.83" cy="558.68" fill="#132e65"></circle><circle r="5" cx="232.92" cy="691.32" fill="#132e65"></circle><circle r="5" cx="404.34" cy="345.82" fill="#132e65"></circle><circle r="5" cx="343.05" cy="668.24" fill="#132e65"></circle><circle r="5" cx="535.62" cy="384.15" fill="#132e65"></circle><circle r="5" cx="539.79" cy="558.46" fill="#132e65"></circle><circle r="5" cx="492.3" cy="691.28" fill="#132e65"></circle><circle r="5" cx="681.11" cy="249.05" fill="#132e65"></circle><circle r="5" cx="694.86" cy="338.97" fill="#132e65"></circle><circle r="5" cx="693.4" cy="490.01" fill="#132e65"></circle><circle r="5" cx="642.44" cy="693.45" fill="#132e65"></circle><circle r="5" cx="854.3" cy="51.07" fill="#132e65"></circle><circle r="5" cx="851.58" cy="229.24" fill="#132e65"></circle><circle r="5" cx="789.44" cy="404.86" fill="#132e65"></circle><circle r="5" cx="801.87" cy="542.52" fill="#132e65"></circle><circle r="5" cx="840.86" cy="649.24" fill="#132e65"></circle><circle r="5" cx="963.19" cy="-69.05" fill="#132e65"></circle><circle r="5" cx="946.99" cy="88.15" fill="#132e65"></circle><circle r="5" cx="998.15" cy="236.59" fill="#132e65"></circle><circle r="5" cx="1001.56" cy="346.19" fill="#132e65"></circle><circle r="5" cx="992.61" cy="524.7" fill="#132e65"></circle><circle r="5" cx="978.33" cy="667.75" fill="#132e65"></circle><circle r="5" cx="1158.49" cy="-44.11" fill="#132e65"></circle><circle r="5" cx="1156.83" cy="75.16" fill="#132e65"></circle><circle r="5" cx="1087.88" cy="214.67" fill="#132e65"></circle><circle r="5" cx="1115.63" cy="375.08" fill="#132e65"></circle><circle r="5" cx="1122.43" cy="503.33" fill="#132e65"></circle><circle r="5" cx="1097.62" cy="643.44" fill="#132e65"></circle><circle r="5" cx="1310.78" cy="62.42" fill="#132e65"></circle><circle r="5" cx="1253.8" cy="207.73" fill="#132e65"></circle><circle r="5" cx="1291.33" cy="375.04" fill="#132e65"></circle><circle r="5" cx="1249.66" cy="516.31" fill="#132e65"></circle><circle r="5" cx="1286.1" cy="656.58" fill="#132e65"></circle><circle r="5" cx="1457.51" cy="53.24" fill="#132e65"></circle><circle r="5" cx="1460.8" cy="209.91" fill="#132e65"></circle><circle r="5" cx="1404.25" cy="401.06" fill="#132e65"></circle><circle r="5" cx="1387.83" cy="530.81" fill="#132e65"></circle><circle r="5" cx="1389.69" cy="650.89" fill="#132e65"></circle><circle r="5" cx="1573.69" cy="94.23" fill="#132e65"></circle><circle r="5" cx="1571.97" cy="236.75" fill="#132e65"></circle><circle r="5" cx="1584.13" cy="408.18" fill="#132e65"></circle><circle r="5" cx="1593.18" cy="700.04" fill="#132e65"></circle><path d="M206.19 559.98L206.19 559.98" stroke="hsl(228.5, 77.2%, 51.5%)" stroke-width="1.5"></path><path d="M206.19 559.98L213.44 691.81" stroke="hsl(228.5, 77.2%, 51.5%)" stroke-width="1.5"></path><path d="M206.19 559.98L78.39 672.56" stroke="hsl(228.5, 77.2%, 51.5%)" stroke-width="1.5"></path><path d="M213.44 691.81L213.44 691.81" stroke="hsl(228.5, 77.2%, 51.5%)" stroke-width="1.5"></path><path d="M213.44 691.81L78.39 672.56" stroke="hsl(228.5, 77.2%, 51.5%)" stroke-width="1.5"></path><path d="M213.44 691.81L352.24 677.82" stroke="hsl(228.5, 77.2%, 51.5%)" stroke-width="1.5"></path><path d="M213.44 691.81L402 541.08" stroke="hsl(228.5, 77.2%, 51.5%)" stroke-width="1.5"></path><path d="M213.44 691.81L-56.2 679.84" stroke="hsl(228.5, 77.2%, 51.5%)" stroke-width="1.5"></path><path d="M213.44 691.81L534.94 663.38" stroke="hsl(228.5, 77.2%, 51.5%)" stroke-width="1.5"></path><path d="M659.42 549.06L659.42 549.06" stroke="hsl(228.5, 77.2%, 51.5%)" stroke-width="1.5"></path><path d="M659.42 549.06L560.66 557.11" stroke="hsl(228.5, 77.2%, 51.5%)" stroke-width="1.5"></path><path d="M659.42 549.06L669.63 648.09" stroke="hsl(228.5, 77.2%, 51.5%)" stroke-width="1.5"></path><path d="M659.42 549.06L534.94 663.38" stroke="hsl(228.5, 77.2%, 51.5%)" stroke-width="1.5"></path><path d="M659.42 549.06L834.04 491.18" stroke="hsl(228.5, 77.2%, 51.5%)" stroke-width="1.5"></path><path d="M659.42 549.06L798.69 699.86" stroke="hsl(228.5, 77.2%, 51.5%)" stroke-width="1.5"></path><path d="M669.63 648.09L669.63 648.09" stroke="hsl(228.5, 77.2%, 51.5%)" stroke-width="1.5"></path><path d="M669.63 648.09L534.94 663.38" stroke="hsl(228.5, 77.2%, 51.5%)" stroke-width="1.5"></path><path d="M669.63 648.09L798.69 699.86" stroke="hsl(228.5, 77.2%, 51.5%)" stroke-width="1.5"></path><path d="M1160.46 54.17L1160.46 54.17" stroke="hsl(228.5, 77.2%, 51.5%)" stroke-width="1.5"></path><path d="M1160.46 54.17L1263.91 -105.94" stroke="hsl(228.5, 77.2%, 51.5%)" stroke-width="1.5"></path><path d="M1160.46 54.17L1309.68 195.17" stroke="hsl(228.5, 77.2%, 51.5%)" stroke-width="1.5"></path><path d="M1160.46 54.17L1161.46 261.25" stroke="hsl(228.5, 77.2%, 51.5%)" stroke-width="1.5"></path><path d="M1160.46 54.17L1398.49 65.95" stroke="hsl(228.5, 77.2%, 51.5%)" stroke-width="1.5"></path><path d="M1160.46 54.17L992.05 228.63" stroke="hsl(228.5, 77.2%, 51.5%)" stroke-width="1.5"></path><path d="M1160.46 54.17L1392.29 -77.07" stroke="hsl(228.5, 77.2%, 51.5%)" stroke-width="1.5"></path><path d="M1276.69 645.61L1276.69 645.61" stroke="hsl(228.5, 77.2%, 51.5%)" stroke-width="1.5"></path><path d="M1276.69 645.61L1137.88 692.99" stroke="hsl(228.5, 77.2%, 51.5%)" stroke-width="1.5"></path><path d="M1276.69 645.61L1311.61 495.29" stroke="hsl(228.5, 77.2%, 51.5%)" stroke-width="1.5"></path><path d="M1276.69 645.61L1451.8 688.5" stroke="hsl(228.5, 77.2%, 51.5%)" stroke-width="1.5"></path><path d="M1276.69 645.61L1104.71 546.48" stroke="hsl(228.5, 77.2%, 51.5%)" stroke-width="1.5"></path><path d="M1276.69 645.61L1450.68 516.86" stroke="hsl(228.5, 77.2%, 51.5%)" stroke-width="1.5"></path><path d="M1276.69 645.61L1286.08 392" stroke="hsl(228.5, 77.2%, 51.5%)" stroke-width="1.5"></path><path d="M1404.7 226.35L1404.7 226.35" stroke="hsl(228.5, 77.2%, 51.5%)" stroke-width="1.5"></path><path d="M1404.7 226.35L1309.68 195.17" stroke="hsl(228.5, 77.2%, 51.5%)" stroke-width="1.5"></path><path d="M1606.07 259.3L1606.07 259.3" stroke="hsl(228.5, 77.2%, 51.5%)" stroke-width="1.5"></path><path d="M1606.07 259.3L1580.02 337.95" stroke="hsl(228.5, 77.2%, 51.5%)" stroke-width="1.5"></path><path d="M1606.07 259.3L1404.7 226.35" stroke="hsl(228.5, 77.2%, 51.5%)" stroke-width="1.5"></path><path d="M1606.07 259.3L1588.43 41.72" stroke="hsl(228.5, 77.2%, 51.5%)" stroke-width="1.5"></path><path d="M1606.07 259.3L1426.48 403.79" stroke="hsl(228.5, 77.2%, 51.5%)" stroke-width="1.5"></path><path d="M1606.07 259.3L1557.88 487.8" stroke="hsl(228.5, 77.2%, 51.5%)" stroke-width="1.5"></path><path d="M1580.02 337.95L1580.02 337.95" stroke="hsl(228.5, 77.2%, 51.5%)" stroke-width="1.5"></path><path d="M1580.02 337.95L1557.88 487.8" stroke="hsl(228.5, 77.2%, 51.5%)" stroke-width="1.5"></path><path d="M1580.02 337.95L1426.48 403.79" stroke="hsl(228.5, 77.2%, 51.5%)" stroke-width="1.5"></path><path d="M-55.66 506.81L-55.66 506.81" stroke="hsl(228.5, 77.2%, 51.5%)" stroke-width="1.5"></path><path d="M-55.66 506.81L-56.2 679.84" stroke="hsl(228.5, 77.2%, 51.5%)" stroke-width="1.5"></path><path d="M-55.66 506.81L78.39 672.56" stroke="hsl(228.5, 77.2%, 51.5%)" stroke-width="1.5"></path><path d="M-56.2 679.84L-56.2 679.84" stroke="hsl(228.5, 77.2%, 51.5%)" stroke-width="1.5"></path><path d="M-56.2 679.84L78.39 672.56" stroke="hsl(228.5, 77.2%, 51.5%)" stroke-width="1.5"></path><path d="M-56.2 679.84L206.19 559.98" stroke="hsl(228.5, 77.2%, 51.5%)" stroke-width="1.5"></path><path d="M-56.2 679.84L352.24 677.82" stroke="hsl(228.5, 77.2%, 51.5%)" stroke-width="1.5"></path><path d="M78.39 672.56L78.39 672.56" stroke="hsl(228.5, 77.2%, 51.5%)" stroke-width="1.5"></path><path d="M402 541.08L402 541.08" stroke="hsl(228.5, 77.2%, 51.5%)" stroke-width="1.5"></path><path d="M402 541.08L352.24 677.82" stroke="hsl(228.5, 77.2%, 51.5%)" stroke-width="1.5"></path><path d="M402 541.08L560.66 557.11" stroke="hsl(228.5, 77.2%, 51.5%)" stroke-width="1.5"></path><path d="M402 541.08L534.94 663.38" stroke="hsl(228.5, 77.2%, 51.5%)" stroke-width="1.5"></path><path d="M402 541.08L206.19 559.98" stroke="hsl(228.5, 77.2%, 51.5%)" stroke-width="1.5"></path><path d="M352.24 677.82L352.24 677.82" stroke="hsl(228.5, 77.2%, 51.5%)" stroke-width="1.5"></path><path d="M352.24 677.82L534.94 663.38" stroke="hsl(228.5, 77.2%, 51.5%)" stroke-width="1.5"></path><path d="M352.24 677.82L206.19 559.98" stroke="hsl(228.5, 77.2%, 51.5%)" stroke-width="1.5"></path><path d="M352.24 677.82L560.66 557.11" stroke="hsl(228.5, 77.2%, 51.5%)" stroke-width="1.5"></path><path d="M560.66 557.11L560.66 557.11" stroke="hsl(228.5, 77.2%, 51.5%)" stroke-width="1.5"></path><path d="M560.66 557.11L534.94 663.38" stroke="hsl(228.5, 77.2%, 51.5%)" stroke-width="1.5"></path><path d="M560.66 557.11L669.63 648.09" stroke="hsl(228.5, 77.2%, 51.5%)" stroke-width="1.5"></path><path d="M534.94 663.38L534.94 663.38" stroke="hsl(228.5, 77.2%, 51.5%)" stroke-width="1.5"></path><path d="M841.59 373.5L841.59 373.5" stroke="hsl(228.5, 77.2%, 51.5%)" stroke-width="1.5"></path><path d="M841.59 373.5L834.04 491.18" stroke="hsl(228.5, 77.2%, 51.5%)" stroke-width="1.5"></path><path d="M841.59 373.5L992.26 398.25" stroke="hsl(228.5, 77.2%, 51.5%)" stroke-width="1.5"></path><path d="M841.59 373.5L955.62 514.48" stroke="hsl(228.5, 77.2%, 51.5%)" stroke-width="1.5"></path><path d="M841.59 373.5L992.05 228.63" stroke="hsl(228.5, 77.2%, 51.5%)" stroke-width="1.5"></path><path d="M841.59 373.5L659.42 549.06" stroke="hsl(228.5, 77.2%, 51.5%)" stroke-width="1.5"></path><path d="M841.59 373.5L1104.71 546.48" stroke="hsl(228.5, 77.2%, 51.5%)" stroke-width="1.5"></path><path d="M834.04 491.18L834.04 491.18" stroke="hsl(228.5, 77.2%, 51.5%)" stroke-width="1.5"></path><path d="M834.04 491.18L955.62 514.48" stroke="hsl(228.5, 77.2%, 51.5%)" stroke-width="1.5"></path><path d="M834.04 491.18L992.26 398.25" stroke="hsl(228.5, 77.2%, 51.5%)" stroke-width="1.5"></path><path d="M834.04 491.18L798.69 699.86" stroke="hsl(228.5, 77.2%, 51.5%)" stroke-width="1.5"></path><path d="M798.69 699.86L798.69 699.86" stroke="hsl(228.5, 77.2%, 51.5%)" stroke-width="1.5"></path><path d="M798.69 699.86L961.86 688.31" stroke="hsl(228.5, 77.2%, 51.5%)" stroke-width="1.5"></path><path d="M992.05 228.63L992.05 228.63" stroke="hsl(228.5, 77.2%, 51.5%)" stroke-width="1.5"></path><path d="M992.05 228.63L992.26 398.25" stroke="hsl(228.5, 77.2%, 51.5%)" stroke-width="1.5"></path><path d="M992.05 228.63L1161.46 261.25" stroke="hsl(228.5, 77.2%, 51.5%)" stroke-width="1.5"></path><path d="M992.05 228.63L1156.21 350" stroke="hsl(228.5, 77.2%, 51.5%)" stroke-width="1.5"></path><path d="M992.26 398.25L992.26 398.25" stroke="hsl(228.5, 77.2%, 51.5%)" stroke-width="1.5"></path><path d="M992.26 398.25L955.62 514.48" stroke="hsl(228.5, 77.2%, 51.5%)" stroke-width="1.5"></path><path d="M955.62 514.48L955.62 514.48" stroke="hsl(228.5, 77.2%, 51.5%)" stroke-width="1.5"></path><path d="M955.62 514.48L1104.71 546.48" stroke="hsl(228.5, 77.2%, 51.5%)" stroke-width="1.5"></path><path d="M955.62 514.48L961.86 688.31" stroke="hsl(228.5, 77.2%, 51.5%)" stroke-width="1.5"></path><path d="M961.86 688.31L961.86 688.31" stroke="hsl(228.5, 77.2%, 51.5%)" stroke-width="1.5"></path><path d="M1161.46 261.25L1161.46 261.25" stroke="hsl(228.5, 77.2%, 51.5%)" stroke-width="1.5"></path><path d="M1161.46 261.25L1156.21 350" stroke="hsl(228.5, 77.2%, 51.5%)" stroke-width="1.5"></path><path d="M1161.46 261.25L1309.68 195.17" stroke="hsl(228.5, 77.2%, 51.5%)" stroke-width="1.5"></path><path d="M1156.21 350L1156.21 350" stroke="hsl(228.5, 77.2%, 51.5%)" stroke-width="1.5"></path><path d="M1156.21 350L1286.08 392" stroke="hsl(228.5, 77.2%, 51.5%)" stroke-width="1.5"></path><path d="M1156.21 350L992.26 398.25" stroke="hsl(228.5, 77.2%, 51.5%)" stroke-width="1.5"></path><path d="M1156.21 350L1104.71 546.48" stroke="hsl(228.5, 77.2%, 51.5%)" stroke-width="1.5"></path><path d="M1104.71 546.48L1104.71 546.48" stroke="hsl(228.5, 77.2%, 51.5%)" stroke-width="1.5"></path><path d="M1104.71 546.48L1137.88 692.99" stroke="hsl(228.5, 77.2%, 51.5%)" stroke-width="1.5"></path><path d="M1104.71 546.48L992.26 398.25" stroke="hsl(228.5, 77.2%, 51.5%)" stroke-width="1.5"></path><path d="M1104.71 546.48L961.86 688.31" stroke="hsl(228.5, 77.2%, 51.5%)" stroke-width="1.5"></path><path d="M1137.88 692.99L1137.88 692.99" stroke="hsl(228.5, 77.2%, 51.5%)" stroke-width="1.5"></path><path d="M1137.88 692.99L961.86 688.31" stroke="hsl(228.5, 77.2%, 51.5%)" stroke-width="1.5"></path><path d="M1137.88 692.99L955.62 514.48" stroke="hsl(228.5, 77.2%, 51.5%)" stroke-width="1.5"></path><path d="M1137.88 692.99L1311.61 495.29" stroke="hsl(228.5, 77.2%, 51.5%)" stroke-width="1.5"></path><path d="M1137.88 692.99L1451.8 688.5" stroke="hsl(228.5, 77.2%, 51.5%)" stroke-width="1.5"></path><path d="M1263.91 -105.94L1263.91 -105.94" stroke="hsl(228.5, 77.2%, 51.5%)" stroke-width="1.5"></path><path d="M1263.91 -105.94L1392.29 -77.07" stroke="hsl(228.5, 77.2%, 51.5%)" stroke-width="1.5"></path><path d="M1309.68 195.17L1309.68 195.17" stroke="hsl(228.5, 77.2%, 51.5%)" stroke-width="1.5"></path><path d="M1309.68 195.17L1398.49 65.95" stroke="hsl(228.5, 77.2%, 51.5%)" stroke-width="1.5"></path><path d="M1286.08 392L1286.08 392" stroke="hsl(228.5, 77.2%, 51.5%)" stroke-width="1.5"></path><path d="M1286.08 392L1311.61 495.29" stroke="hsl(228.5, 77.2%, 51.5%)" stroke-width="1.5"></path><path d="M1311.61 495.29L1311.61 495.29" stroke="hsl(228.5, 77.2%, 51.5%)" stroke-width="1.5"></path><path d="M1311.61 495.29L1450.68 516.86" stroke="hsl(228.5, 77.2%, 51.5%)" stroke-width="1.5"></path><path d="M1311.61 495.29L1426.48 403.79" stroke="hsl(228.5, 77.2%, 51.5%)" stroke-width="1.5"></path><path d="M1311.61 495.29L1156.21 350" stroke="hsl(228.5, 77.2%, 51.5%)" stroke-width="1.5"></path><path d="M1311.61 495.29L1104.71 546.48" stroke="hsl(228.5, 77.2%, 51.5%)" stroke-width="1.5"></path><path d="M1392.29 -77.07L1392.29 -77.07" stroke="hsl(228.5, 77.2%, 51.5%)" stroke-width="1.5"></path><path d="M1392.29 -77.07L1398.49 65.95" stroke="hsl(228.5, 77.2%, 51.5%)" stroke-width="1.5"></path><path d="M1392.29 -77.07L1576.94 -111.62" stroke="hsl(228.5, 77.2%, 51.5%)" stroke-width="1.5"></path><path d="M1392.29 -77.07L1588.43 41.72" stroke="hsl(228.5, 77.2%, 51.5%)" stroke-width="1.5"></path><path d="M1398.49 65.95L1398.49 65.95" stroke="hsl(228.5, 77.2%, 51.5%)" stroke-width="1.5"></path><path d="M1398.49 65.95L1404.7 226.35" stroke="hsl(228.5, 77.2%, 51.5%)" stroke-width="1.5"></path><path d="M1398.49 65.95L1588.43 41.72" stroke="hsl(228.5, 77.2%, 51.5%)" stroke-width="1.5"></path><path d="M1426.48 403.79L1426.48 403.79" stroke="hsl(228.5, 77.2%, 51.5%)" stroke-width="1.5"></path><path d="M1426.48 403.79L1450.68 516.86" stroke="hsl(228.5, 77.2%, 51.5%)" stroke-width="1.5"></path><path d="M1426.48 403.79L1286.08 392" stroke="hsl(228.5, 77.2%, 51.5%)" stroke-width="1.5"></path><path d="M1450.68 516.86L1450.68 516.86" stroke="hsl(228.5, 77.2%, 51.5%)" stroke-width="1.5"></path><path d="M1450.68 516.86L1557.88 487.8" stroke="hsl(228.5, 77.2%, 51.5%)" stroke-width="1.5"></path><path d="M1450.68 516.86L1451.8 688.5" stroke="hsl(228.5, 77.2%, 51.5%)" stroke-width="1.5"></path><path d="M1451.8 688.5L1451.8 688.5" stroke="hsl(228.5, 77.2%, 51.5%)" stroke-width="1.5"></path><path d="M1451.8 688.5L1564.22 671.96" stroke="hsl(228.5, 77.2%, 51.5%)" stroke-width="1.5"></path><path d="M1576.94 -111.62L1576.94 -111.62" stroke="hsl(228.5, 77.2%, 51.5%)" stroke-width="1.5"></path><path d="M1576.94 -111.62L1588.43 41.72" stroke="hsl(228.5, 77.2%, 51.5%)" stroke-width="1.5"></path><path d="M1588.43 41.72L1588.43 41.72" stroke="hsl(228.5, 77.2%, 51.5%)" stroke-width="1.5"></path><path d="M1557.88 487.8L1557.88 487.8" stroke="hsl(228.5, 77.2%, 51.5%)" stroke-width="1.5"></path><path d="M1564.22 671.96L1564.22 671.96" stroke="hsl(228.5, 77.2%, 51.5%)" stroke-width="1.5"></path><path d="M1564.22 671.96L1557.88 487.8" stroke="hsl(228.5, 77.2%, 51.5%)" stroke-width="1.5"></path><path d="M1564.22 671.96L1450.68 516.86" stroke="hsl(228.5, 77.2%, 51.5%)" stroke-width="1.5"></path><circle r="25" cx="206.19" cy="559.98" fill="url(#SvgjsRadialGradient1016)"></circle><circle r="25" cx="213.44" cy="691.81" fill="url(#SvgjsRadialGradient1016)"></circle><circle r="25" cx="659.42" cy="549.06" fill="url(#SvgjsRadialGradient1016)"></circle><circle r="25" cx="669.63" cy="648.09" fill="url(#SvgjsRadialGradient1016)"></circle><circle r="25" cx="1160.46" cy="54.17" fill="url(#SvgjsRadialGradient1016)"></circle><circle r="25" cx="1276.69" cy="645.61" fill="url(#SvgjsRadialGradient1016)"></circle><circle r="25" cx="1404.7" cy="226.35" fill="url(#SvgjsRadialGradient1016)"></circle><circle r="25" cx="1606.07" cy="259.3" fill="url(#SvgjsRadialGradient1016)"></circle><circle r="25" cx="1580.02" cy="337.95" fill="url(#SvgjsRadialGradient1016)"></circle><circle r="5" cx="-55.66" cy="506.81" fill="#8b9ad9"></circle><circle r="5" cx="-56.2" cy="679.84" fill="#8b9ad9"></circle><circle r="5" cx="78.39" cy="672.56" fill="#8b9ad9"></circle><circle r="5" cx="402" cy="541.08" fill="#8b9ad9"></circle><circle r="5" cx="352.24" cy="677.82" fill="#8b9ad9"></circle><circle r="5" cx="560.66" cy="557.11" fill="#8b9ad9"></circle><circle r="5" cx="534.94" cy="663.38" fill="#8b9ad9"></circle><circle r="5" cx="841.59" cy="373.5" fill="#8b9ad9"></circle><circle r="5" cx="834.04" cy="491.18" fill="#8b9ad9"></circle><circle r="5" cx="798.69" cy="699.86" fill="#8b9ad9"></circle><circle r="5" cx="992.05" cy="228.63" fill="#8b9ad9"></circle><circle r="5" cx="992.26" cy="398.25" fill="#8b9ad9"></circle><circle r="5" cx="955.62" cy="514.48" fill="#8b9ad9"></circle><circle r="5" cx="961.86" cy="688.31" fill="#8b9ad9"></circle><circle r="5" cx="1161.46" cy="261.25" fill="#8b9ad9"></circle><circle r="5" cx="1156.21" cy="350" fill="#8b9ad9"></circle><circle r="5" cx="1104.71" cy="546.48" fill="#8b9ad9"></circle><circle r="5" cx="1137.88" cy="692.99" fill="#8b9ad9"></circle><circle r="5" cx="1263.91" cy="-105.94" fill="#8b9ad9"></circle><circle r="5" cx="1309.68" cy="195.17" fill="#8b9ad9"></circle><circle r="5" cx="1286.08" cy="392" fill="#8b9ad9"></circle><circle r="5" cx="1311.61" cy="495.29" fill="#8b9ad9"></circle><circle r="5" cx="1392.29" cy="-77.07" fill="#8b9ad9"></circle><circle r="5" cx="1398.49" cy="65.95" fill="#8b9ad9"></circle><circle r="5" cx="1426.48" cy="403.79" fill="#8b9ad9"></circle><circle r="5" cx="1450.68" cy="516.86" fill="#8b9ad9"></circle><circle r="5" cx="1451.8" cy="688.5" fill="#8b9ad9"></circle><circle r="5" cx="1576.94" cy="-111.62" fill="#8b9ad9"></circle><circle r="5" cx="1588.43" cy="41.72" fill="#8b9ad9"></circle><circle r="5" cx="1557.88" cy="487.8" fill="#8b9ad9"></circle><circle r="5" cx="1564.22" cy="671.96" fill="#8b9ad9"></circle></g><defs><mask id="SvgjsMask1014"><rect width="1440" height="560" fill="#ffffff"></rect></mask><linearGradient x1="15.28%" y1="-39.29%" x2="84.72%" y2="139.29%" gradientUnits="userSpaceOnUse" id="SvgjsLinearGradient1015"><stop stop-color="#0e2a47" offset="0"></stop><stop stop-color="rgba(95, 123, 160, 1)" offset="1"></stop></linearGradient><radialGradient id="SvgjsRadialGradient1016"><stop stop-color="#ffffff" offset="0.1"></stop><stop stop-color="#1735b3" offset="0.2"></stop><stop stop-color="rgba(23, 53, 179, 0)" offset="1"></stop></radialGradient></defs></svg>