<svg xmlns="http://www.w3.org/2000/svg" version="1.1" xmlns:xlink="http://www.w3.org/1999/xlink" xmlns:svgjs="http://svgjs.com/svgjs" width="1440" height="560" preserveAspectRatio="none" viewBox="0 0 1440 560"><g mask="url(&quot;#SvgjsMask1136&quot;)" fill="none"><rect width="1440" height="560" x="0" y="0" fill="rgba(25, 42, 86, 1)"></rect><path d="M 0,380 C 15.2,334.2 45.6,161.4 76,151 C 106.4,140.6 121.6,333.8 152,328 C 182.4,322.2 197.6,120.8 228,122 C 258.4,123.2 273.6,339.6 304,334 C 334.4,328.4 349.6,85 380,94 C 410.4,103 425.6,350.4 456,379 C 486.4,407.6 501.6,256.2 532,237 C 562.4,217.8 577.6,313.6 608,283 C 638.4,252.4 653.6,56 684,84 C 714.4,112 729.6,389.4 760,423 C 790.4,456.6 805.6,247 836,252 C 866.4,257 881.6,459 912,448 C 942.4,437 957.6,224.8 988,197 C 1018.4,169.2 1033.6,306.8 1064,309 C 1094.4,311.2 1109.6,163.8 1140,208 C 1170.4,252.2 1185.6,538.8 1216,530 C 1246.4,521.2 1261.6,196.4 1292,164 C 1322.4,131.6 1338.4,348.6 1368,368 C 1397.6,387.4 1425.6,282.4 1440,261L1440 560L0 560z" fill="rgba(39, 174, 96, 0.18)"></path></g><defs><mask id="SvgjsMask1136"><rect width="1440" height="560" fill="#ffffff"></rect></mask></defs></svg>