<svg xmlns="http://www.w3.org/2000/svg" version="1.1" xmlns:xlink="http://www.w3.org/1999/xlink" xmlns:svgjs="http://svgjs.com/svgjs" width="1440" height="560" preserveAspectRatio="none" viewBox="0 0 1440 560"><g mask="url(&quot;#SvgjsMask1016&quot;)" fill="none"><rect width="1440" height="560" x="0" y="0" fill="rgba(25, 42, 86, 1)"></rect><path d="M0 337.59L10 323.89L20 354.74L30 384.48L40 416.74L50 427.02L60 438.04L70 468.93L80 480.71L90 432.16L100 362.27L110 368.06L120 435.35L130 468.49L140 469.82L150 408.41L160 477.02L170 530.14L180 527.14L190 510.14L200 461.58L210 523.55L220 473.54L230 468.74L240 418.5L250 387.45L260 399.88L270 374.12L280 426.28L290 383.55L300 348.6L310 411.12L320 432.24L330 457.35L340 432.68L350 488.98L360 483.33L370 486.67L380 475.33L390 425.38L400 451L410 456.95L420 488.28L430 524.07L440 471.04L450 424.28L460 493.83L470 481.67L480 521.61L490 492.03L500 449.08L510 435.27L520 385.75L530 434.26L540 473.2L550 494.17L560 506.89L570 483.03L580 519.63L590 532.04L600 468.06L610 487.48L620 446.6L630 437.43L640 507.19L650 477.84L660 432.75L670 441L680 432.12L690 467.6L700 519.31L710 559.93L720 557.61L730 509.05L740 513.49L750 552.05L760 523.31L770 487.64L780 460.29L790 451.74L800 452.91L810 435.16L820 405.51L830 355.86L840 294.46L850 336.65L860 335.48L870 364.58L880 402.38L890 457.13L900 389.91L910 401.65L920 470.56L930 447.58L940 477.73L950 455.7L960 461.55L970 462.4L980 408.11L990 356.52L1000 365.98L1010 431.92L1020 400.35L1030 364.45L1040 407.61L1050 384.61L1060 406.78L1070 447.3L1080 488.69L1090 558.09L1100 543.99L1110 520.72L1120 451.25L1130 439.81L1140 457.85L1150 437.18L1160 484.66L1170 426.34L1180 420.87L1190 388.93L1200 319.37L1210 279.33L1220 329.63L1230 268.82L1240 234.67L1250 288.97L1260 266.64L1270 327.92L1280 327.92L1290 361.58L1300 420.16L1310 403.75L1320 462.03L1330 511.89L1340 517.84L1350 522.37L1360 523.41L1370 523.9L1380 481.18L1390 548.14L1400 487.92L1410 483.29L1420 467.2L1430 502.71L1440 503.33" stroke="rgba(39, 174, 96, 1)" stroke-width="2"></path><path d="M0 337.59L10 323.89L20 354.74L30 384.48L40 416.74L50 427.02L60 438.04L70 468.93L80 480.71L90 432.16L100 362.27L110 368.06L120 435.35L130 468.49L140 469.82L150 408.41L160 477.02L170 530.14L180 527.14L190 510.14L200 461.58L210 523.55L220 473.54L230 468.74L240 418.5L250 387.45L260 399.88L270 374.12L280 426.28L290 383.55L300 348.6L310 411.12L320 432.24L330 457.35L340 432.68L350 488.98L360 483.33L370 486.67L380 475.33L390 425.38L400 451L410 456.95L420 488.28L430 524.07L440 471.04L450 424.28L460 493.83L470 481.67L480 521.61L490 492.03L500 449.08L510 435.27L520 385.75L530 434.26L540 473.2L550 494.17L560 506.89L570 483.03L580 519.63L590 532.04L600 468.06L610 487.48L620 446.6L630 437.43L640 507.19L650 477.84L660 432.75L670 441L680 432.12L690 467.6L700 519.31L710 559.93L720 557.61L730 509.05L740 513.49L750 552.05L760 523.31L770 487.64L780 460.29L790 451.74L800 452.91L810 435.16L820 405.51L830 355.86L840 294.46L850 336.65L860 335.48L870 364.58L880 402.38L890 457.13L900 389.91L910 401.65L920 470.56L930 447.58L940 477.73L950 455.7L960 461.55L970 462.4L980 408.11L990 356.52L1000 365.98L1010 431.92L1020 400.35L1030 364.45L1040 407.61L1050 384.61L1060 406.78L1070 447.3L1080 488.69L1090 558.09L1100 543.99L1110 520.72L1120 451.25L1130 439.81L1140 457.85L1150 437.18L1160 484.66L1170 426.34L1180 420.87L1190 388.93L1200 319.37L1210 279.33L1220 329.63L1230 268.82L1240 234.67L1250 288.97L1260 266.64L1270 327.92L1280 327.92L1290 361.58L1300 420.16L1310 403.75L1320 462.03L1330 511.89L1340 517.84L1350 522.37L1360 523.41L1370 523.9L1380 481.18L1390 548.14L1400 487.92L1410 483.29L1420 467.2L1430 502.71L1440 503.33L1440 560L0 560z" fill="url(#SvgjsLinearGradient1017)"></path></g><defs><mask id="SvgjsMask1016"><rect width="1440" height="560" fill="#ffffff"></rect></mask><linearGradient x1="50%" y1="0%" x2="50%" y2="100%" id="SvgjsLinearGradient1017"><stop stop-opacity="0.65" stop-color="rgba(39, 174, 96, 1)" offset="0"></stop><stop stop-opacity="0" stop-color="#a6ebc3" offset="0.8"></stop></linearGradient></defs></svg>